<svg id="svg" version="1.1" xmlns="http://www.w3.org/2000/svg" xmlns:xlink="http://www.w3.org/1999/xlink" width="400" height="73.06666666666666" viewBox="0, 0, 400,73.06666666666666"><g id="svgg"><path id="path0" d="M348.933 3.474 C 348.885 3.551,346.950 3.667,344.632 3.731 C 342.315 3.796,340.347 3.920,340.259 4.007 C 340.172 4.095,339.590 4.167,338.967 4.167 C 338.343 4.167,337.833 4.223,337.833 4.292 C 337.833 4.360,337.458 4.391,337.000 4.359 C 336.399 4.317,336.167 4.361,336.167 4.517 C 336.167 4.685,336.122 4.689,335.967 4.533 C 335.713 4.280,335.125 4.275,334.875 4.525 C 334.765 4.635,334.256 4.704,333.688 4.687 C 333.140 4.671,332.650 4.725,332.600 4.807 C 332.549 4.889,331.681 5.010,330.671 5.076 C 329.662 5.141,328.799 5.254,328.755 5.326 C 328.710 5.398,327.923 5.510,327.005 5.575 C 326.088 5.640,325.294 5.762,325.242 5.847 C 325.190 5.931,324.739 6.000,324.240 6.000 C 323.741 6.000,323.333 6.066,323.333 6.147 C 323.333 6.228,322.621 6.347,321.750 6.412 C 320.879 6.478,320.167 6.589,320.167 6.659 C 320.167 6.730,319.698 6.834,319.125 6.892 C 318.552 6.949,317.896 7.035,317.667 7.083 C 317.438 7.131,317.006 7.215,316.708 7.271 C 316.410 7.326,316.167 7.438,316.167 7.519 C 316.167 7.600,315.754 7.667,315.250 7.667 C 314.746 7.667,314.333 7.725,314.333 7.796 C 314.333 7.867,314.033 7.897,313.667 7.862 C 313.300 7.827,313.000 7.872,313.000 7.961 C 313.000 8.050,312.477 8.175,311.837 8.238 C 311.198 8.301,310.631 8.423,310.577 8.510 C 310.524 8.596,310.147 8.667,309.740 8.667 C 309.333 8.667,309.000 8.742,309.000 8.833 C 309.000 8.925,308.751 9.000,308.447 9.000 C 308.143 9.000,307.524 9.106,307.072 9.235 C 306.620 9.364,305.800 9.521,305.250 9.584 C 304.700 9.647,304.173 9.762,304.079 9.839 C 303.985 9.916,303.723 10.004,303.496 10.035 C 303.269 10.066,303.008 10.138,302.917 10.194 C 302.825 10.250,302.262 10.350,301.667 10.418 C 301.071 10.485,300.545 10.601,300.498 10.674 C 300.451 10.748,299.926 10.887,299.331 10.982 C 297.542 11.269,297.088 11.373,296.994 11.517 C 296.944 11.593,296.457 11.707,295.910 11.770 C 295.364 11.832,294.874 11.949,294.822 12.028 C 294.770 12.107,294.320 12.215,293.822 12.267 C 293.324 12.319,292.845 12.430,292.758 12.514 C 292.671 12.598,292.396 12.667,292.147 12.667 C 291.898 12.667,291.669 12.739,291.639 12.828 C 291.608 12.916,291.133 13.040,290.583 13.103 C 290.033 13.166,289.541 13.282,289.489 13.361 C 289.436 13.440,288.986 13.548,288.489 13.600 C 287.991 13.652,287.512 13.763,287.425 13.847 C 287.338 13.931,287.057 14.000,286.800 14.000 C 286.543 14.000,286.333 14.068,286.333 14.151 C 286.333 14.234,285.940 14.353,285.458 14.415 C 284.587 14.527,283.667 14.831,283.667 15.007 C 283.667 15.058,283.396 15.068,283.064 15.029 C 282.694 14.986,282.412 15.039,282.333 15.167 C 282.262 15.281,282.007 15.375,281.766 15.375 C 281.525 15.375,281.287 15.441,281.237 15.521 C 281.188 15.601,280.926 15.667,280.657 15.667 C 280.331 15.667,280.167 15.751,280.167 15.918 C 280.167 16.127,280.111 16.135,279.837 15.964 C 279.578 15.802,279.465 15.801,279.304 15.963 C 279.192 16.075,278.927 16.167,278.717 16.167 C 278.506 16.167,278.333 16.246,278.333 16.343 C 278.333 16.440,278.250 16.468,278.149 16.406 C 277.958 16.288,276.704 16.620,276.425 16.862 C 276.338 16.938,276.087 17.000,275.867 17.000 C 275.647 17.000,275.231 17.105,274.942 17.234 C 274.653 17.363,274.117 17.511,273.751 17.564 C 273.385 17.616,273.060 17.736,273.029 17.829 C 272.998 17.923,272.683 18.000,272.329 18.000 C 271.976 18.000,271.643 18.070,271.591 18.155 C 271.538 18.240,271.082 18.362,270.579 18.424 C 270.075 18.487,269.626 18.598,269.581 18.671 C 269.536 18.743,269.119 18.854,268.655 18.918 C 268.009 19.007,267.776 19.119,267.665 19.392 C 267.586 19.589,267.516 19.656,267.511 19.542 C 267.499 19.309,266.833 19.249,266.833 19.481 C 266.833 19.562,266.421 19.680,265.917 19.743 C 265.412 19.806,265.000 19.922,265.000 20.000 C 265.000 20.078,264.587 20.194,264.081 20.257 C 263.576 20.321,263.121 20.439,263.071 20.519 C 263.021 20.600,262.835 20.667,262.657 20.667 C 262.479 20.667,262.333 20.760,262.332 20.875 C 262.332 21.011,262.045 21.089,261.505 21.100 C 261.050 21.109,260.582 21.193,260.464 21.287 C 260.346 21.381,259.895 21.509,259.462 21.572 C 259.029 21.635,258.631 21.757,258.577 21.843 C 258.524 21.929,258.297 22.000,258.073 22.000 C 257.850 22.000,257.667 22.075,257.667 22.167 C 257.667 22.258,257.517 22.333,257.333 22.333 C 257.150 22.333,257.000 22.393,257.000 22.467 C 257.000 22.540,256.737 22.569,256.417 22.532 C 256.088 22.493,255.833 22.537,255.833 22.633 C 255.833 22.726,255.458 22.854,255.000 22.917 C 254.542 22.980,254.125 23.099,254.074 23.182 C 254.022 23.265,253.797 23.333,253.573 23.333 C 253.350 23.333,253.167 23.398,253.167 23.478 C 253.167 23.558,252.856 23.664,252.476 23.715 C 252.096 23.766,251.740 23.877,251.684 23.962 C 251.629 24.046,251.211 24.165,250.757 24.226 C 250.302 24.287,249.856 24.411,249.765 24.502 C 249.674 24.592,249.390 24.667,249.133 24.667 C 248.877 24.667,248.667 24.733,248.667 24.814 C 248.667 24.896,248.329 25.013,247.916 25.075 C 247.503 25.137,246.959 25.295,246.707 25.426 C 246.456 25.557,246.080 25.665,245.873 25.666 C 245.665 25.666,245.365 25.733,245.206 25.814 C 244.527 26.160,244.041 26.321,243.376 26.422 C 242.987 26.481,242.631 26.589,242.586 26.662 C 242.541 26.735,242.166 26.846,241.752 26.908 C 241.304 26.975,241.000 27.108,241.000 27.237 C 241.000 27.378,240.855 27.426,240.582 27.374 C 240.353 27.330,240.068 27.375,239.949 27.473 C 239.831 27.572,239.418 27.702,239.033 27.764 C 238.648 27.826,238.333 27.936,238.333 28.009 C 238.333 28.083,237.921 28.194,237.417 28.257 C 236.912 28.320,236.500 28.438,236.500 28.519 C 236.500 28.600,236.313 28.667,236.083 28.667 C 235.854 28.667,235.666 28.760,235.666 28.875 C 235.665 29.006,235.381 29.096,234.899 29.118 C 234.478 29.138,234.047 29.224,233.942 29.311 C 233.836 29.398,233.394 29.522,232.958 29.587 C 232.523 29.651,232.167 29.771,232.167 29.852 C 232.167 29.934,231.979 30.000,231.750 30.000 C 231.521 30.000,231.333 30.075,231.333 30.167 C 231.333 30.258,231.143 30.333,230.911 30.333 C 230.679 30.333,230.444 30.452,230.388 30.597 C 230.307 30.810,230.260 30.818,230.149 30.639 C 230.037 30.459,229.946 30.456,229.674 30.625 C 229.489 30.740,229.191 30.833,229.012 30.833 C 228.833 30.833,228.644 30.902,228.592 30.985 C 228.541 31.069,228.180 31.191,227.791 31.256 C 227.402 31.321,227.036 31.448,226.979 31.539 C 226.922 31.629,226.522 31.743,226.091 31.791 C 225.624 31.844,225.239 31.989,225.138 32.151 C 225.015 32.347,224.787 32.405,224.317 32.360 C 223.916 32.322,223.667 32.369,223.667 32.482 C 223.667 32.584,223.517 32.667,223.333 32.667 C 223.150 32.667,223.000 32.742,223.000 32.833 C 223.000 32.925,222.768 33.000,222.484 33.000 C 222.199 33.000,221.731 33.106,221.442 33.235 C 221.153 33.365,220.635 33.518,220.292 33.576 C 219.948 33.634,219.667 33.753,219.667 33.841 C 219.667 33.928,219.367 34.000,219.000 34.000 C 218.633 34.000,218.333 34.072,218.333 34.161 C 218.333 34.249,217.958 34.372,217.500 34.432 C 217.042 34.493,216.667 34.602,216.667 34.673 C 216.667 34.745,216.348 34.854,215.958 34.916 C 215.080 35.054,214.334 35.360,214.332 35.582 C 214.332 35.675,213.959 35.757,213.505 35.767 C 213.050 35.776,212.582 35.861,212.464 35.956 C 212.346 36.051,211.932 36.181,211.543 36.246 C 211.153 36.310,210.797 36.424,210.751 36.499 C 210.704 36.574,210.291 36.687,209.833 36.750 C 209.133 36.846,208.998 36.922,208.987 37.224 C 208.980 37.422,208.936 37.490,208.890 37.375 C 208.794 37.138,208.000 37.087,208.000 37.318 C 208.000 37.401,207.625 37.520,207.167 37.583 C 206.708 37.646,206.333 37.766,206.333 37.849 C 206.333 37.932,206.150 38.000,205.927 38.000 C 205.703 38.000,205.476 38.070,205.423 38.156 C 205.370 38.242,205.197 38.315,205.038 38.318 C 204.400 38.330,203.667 38.549,203.666 38.727 C 203.665 38.836,203.335 38.932,202.887 38.952 C 202.460 38.972,202.067 39.056,202.013 39.138 C 201.960 39.220,201.562 39.339,201.129 39.403 C 200.696 39.467,200.297 39.590,200.244 39.676 C 200.191 39.763,199.964 39.833,199.740 39.833 C 199.516 39.833,199.333 39.908,199.333 40.000 C 199.333 40.092,199.150 40.167,198.927 40.167 C 198.703 40.167,198.471 40.245,198.412 40.340 C 198.354 40.436,198.168 40.470,198.000 40.417 C 197.832 40.363,197.646 40.398,197.588 40.493 C 197.529 40.589,197.302 40.667,197.083 40.667 C 196.865 40.667,196.645 40.733,196.595 40.814 C 196.545 40.895,196.167 41.012,195.756 41.074 C 195.344 41.135,194.969 41.248,194.923 41.324 C 194.876 41.400,194.480 41.515,194.044 41.580 C 193.607 41.646,193.209 41.766,193.158 41.847 C 193.108 41.928,192.749 42.035,192.360 42.083 C 191.971 42.132,191.506 42.246,191.327 42.336 C 191.147 42.426,190.851 42.575,190.669 42.667 C 190.487 42.758,190.154 42.833,189.929 42.833 C 189.704 42.833,189.470 42.913,189.410 43.011 C 189.349 43.109,189.197 43.150,189.072 43.102 C 188.947 43.054,188.800 43.086,188.746 43.174 C 188.691 43.262,188.479 43.333,188.273 43.333 C 188.068 43.333,187.815 43.418,187.711 43.522 C 187.608 43.626,187.203 43.739,186.811 43.775 C 186.420 43.810,186.058 43.903,186.008 43.983 C 185.958 44.062,185.523 44.180,185.042 44.245 C 184.560 44.311,184.167 44.426,184.167 44.500 C 184.167 44.574,183.786 44.688,183.322 44.752 C 182.676 44.840,182.442 44.952,182.332 45.226 C 182.253 45.422,182.183 45.490,182.177 45.375 C 182.165 45.142,181.500 45.082,181.500 45.314 C 181.500 45.395,181.088 45.513,180.583 45.576 C 180.079 45.639,179.667 45.760,179.667 45.845 C 179.667 45.930,179.484 46.000,179.260 46.000 C 179.036 46.000,178.813 46.065,178.764 46.144 C 178.715 46.224,178.494 46.254,178.274 46.212 C 178.053 46.170,177.822 46.217,177.760 46.318 C 177.698 46.418,177.501 46.500,177.323 46.500 C 177.146 46.500,177.000 46.594,176.999 46.708 C 176.999 46.843,176.739 46.918,176.267 46.921 C 175.865 46.923,175.359 47.006,175.143 47.107 C 174.719 47.303,173.556 47.633,172.750 47.785 C 172.475 47.837,172.202 47.954,172.143 48.046 C 172.084 48.137,171.653 48.249,171.184 48.294 C 170.716 48.339,170.333 48.437,170.333 48.511 C 170.333 48.585,169.977 48.695,169.542 48.754 C 169.106 48.813,168.522 48.964,168.243 49.089 C 167.578 49.387,166.347 49.695,165.875 49.681 C 165.669 49.675,165.500 49.736,165.500 49.816 C 165.500 49.896,165.089 50.013,164.586 50.076 C 164.083 50.139,163.629 50.260,163.576 50.345 C 163.523 50.430,163.302 50.500,163.083 50.500 C 162.865 50.500,162.646 50.565,162.597 50.645 C 162.548 50.724,162.134 50.839,161.677 50.900 C 161.221 50.960,160.802 51.082,160.747 51.171 C 160.692 51.261,160.445 51.334,160.198 51.334 C 159.952 51.335,159.535 51.447,159.273 51.584 C 159.010 51.721,158.504 51.833,158.148 51.833 C 157.791 51.833,157.500 51.900,157.500 51.981 C 157.500 52.062,157.087 52.180,156.583 52.243 C 156.079 52.306,155.667 52.416,155.667 52.489 C 155.667 52.561,155.279 52.666,154.804 52.722 C 154.330 52.779,153.865 52.901,153.771 52.996 C 153.677 53.090,153.399 53.167,153.152 53.167 C 152.906 53.167,152.490 53.279,152.227 53.416 C 151.965 53.553,151.431 53.665,151.042 53.666 C 150.652 53.666,150.333 53.731,150.333 53.810 C 150.333 53.889,149.945 54.000,149.471 54.056 C 148.997 54.112,148.532 54.235,148.438 54.329 C 148.344 54.423,148.065 54.500,147.819 54.500 C 147.573 54.500,147.157 54.612,146.894 54.749 C 146.631 54.886,146.098 54.998,145.708 54.999 C 145.319 55.000,145.000 55.065,145.000 55.145 C 145.000 55.225,144.552 55.341,144.005 55.403 C 143.458 55.465,142.966 55.587,142.912 55.674 C 142.858 55.762,142.518 55.833,142.157 55.833 C 141.796 55.833,141.500 55.900,141.500 55.981 C 141.500 56.062,141.012 56.180,140.417 56.244 C 139.821 56.308,139.333 56.418,139.333 56.490 C 139.333 56.562,138.945 56.666,138.471 56.722 C 137.997 56.779,137.565 56.883,137.513 56.954 C 137.460 57.025,137.079 57.110,136.667 57.143 C 136.254 57.176,135.879 57.258,135.833 57.326 C 135.787 57.394,135.343 57.496,134.846 57.553 C 134.349 57.611,133.892 57.739,133.831 57.838 C 133.769 57.937,133.651 57.999,133.568 57.976 C 132.888 57.791,130.602 58.332,130.294 58.750 C 130.218 58.853,130.171 58.837,130.169 58.708 C 130.168 58.594,130.017 58.500,129.833 58.500 C 129.650 58.500,129.500 58.569,129.500 58.653 C 129.500 58.738,128.994 58.859,128.375 58.924 C 127.756 58.988,127.175 59.097,127.083 59.166 C 126.992 59.236,126.485 59.344,125.958 59.408 C 125.431 59.472,125.000 59.594,125.000 59.679 C 125.000 59.764,124.592 59.833,124.093 59.833 C 123.594 59.833,123.144 59.902,123.093 59.985 C 123.041 60.069,122.362 60.190,121.583 60.255 C 120.804 60.320,120.167 60.429,120.167 60.498 C 120.167 60.567,119.643 60.675,119.004 60.738 C 118.364 60.801,117.797 60.923,117.744 61.010 C 117.691 61.096,117.239 61.167,116.740 61.167 C 116.241 61.167,115.833 61.235,115.833 61.318 C 115.833 61.401,115.121 61.522,114.250 61.588 C 113.379 61.653,112.667 61.763,112.667 61.832 C 112.667 61.901,111.917 62.010,111.002 62.075 C 110.086 62.140,109.294 62.262,109.242 62.347 C 109.190 62.431,108.791 62.500,108.357 62.500 C 107.922 62.500,107.495 62.567,107.408 62.649 C 107.236 62.810,105.510 63.006,104.375 62.993 C 103.985 62.988,103.667 63.053,103.667 63.138 C 103.667 63.222,102.767 63.344,101.667 63.410 C 100.567 63.476,99.667 63.598,99.667 63.681 C 99.667 63.765,99.067 63.833,98.333 63.833 C 97.600 63.833,97.000 63.899,97.000 63.980 C 97.000 64.108,92.403 64.449,91.888 64.359 C 91.780 64.340,91.644 64.401,91.586 64.496 C 91.527 64.591,90.856 64.667,90.073 64.667 C 89.300 64.667,88.667 64.723,88.667 64.792 C 88.667 64.860,87.842 64.897,86.834 64.872 C 85.661 64.843,85.000 64.889,85.000 64.998 C 85.000 65.103,84.871 65.089,84.667 64.961 C 84.401 64.795,84.266 64.795,84.002 64.960 C 83.771 65.105,82.770 65.167,80.669 65.167 C 78.380 65.167,77.666 65.216,77.664 65.375 C 77.662 65.534,77.631 65.536,77.535 65.384 C 77.382 65.144,66.833 65.085,66.833 65.325 C 66.833 65.981,68.047 66.339,68.273 65.750 C 68.407 65.400,68.612 65.439,68.715 65.833 C 68.839 66.308,69.729 66.289,70.068 65.805 C 70.299 65.475,70.332 65.469,70.434 65.734 C 70.688 66.398,72.000 66.388,72.000 65.722 C 72.000 65.533,72.101 65.583,72.345 65.894 C 72.744 66.401,73.253 66.458,73.709 66.045 C 74.011 65.772,74.036 65.772,74.189 66.045 C 74.403 66.428,75.424 66.439,75.569 66.061 C 75.666 65.808,75.696 65.808,75.975 66.061 C 76.371 66.419,77.265 66.419,77.402 66.061 C 77.499 65.808,77.529 65.808,77.808 66.061 C 78.161 66.380,79.012 66.421,79.300 66.133 C 79.456 65.978,79.544 65.978,79.700 66.133 C 79.974 66.407,80.520 66.384,80.952 66.082 C 81.172 65.927,81.351 65.893,81.413 65.994 C 81.473 66.092,82.169 66.130,83.132 66.087 C 84.979 66.007,85.062 66.004,85.458 66.019 C 85.619 66.024,86.313 65.990,87.000 65.943 C 88.214 65.859,90.890 65.685,92.583 65.580 C 93.300 65.535,96.030 65.302,98.250 65.094 C 98.617 65.060,99.479 64.952,100.167 64.855 C 100.854 64.757,101.773 64.675,102.208 64.672 C 102.812 64.668,103.000 64.605,103.000 64.407 C 103.000 64.253,103.078 64.196,103.192 64.266 C 103.450 64.425,105.553 64.349,105.663 64.176 C 105.711 64.101,106.537 63.985,107.500 63.918 C 108.462 63.851,109.325 63.736,109.417 63.663 C 109.508 63.589,110.146 63.479,110.833 63.417 C 111.521 63.356,112.155 63.237,112.242 63.153 C 112.329 63.069,112.760 63.000,113.200 63.000 C 113.640 63.000,114.000 62.935,114.000 62.856 C 114.000 62.777,114.731 62.659,115.624 62.593 C 116.517 62.528,117.323 62.414,117.415 62.341 C 117.597 62.198,119.132 61.983,119.875 61.997 C 120.127 62.001,120.333 61.929,120.333 61.836 C 120.333 61.743,120.554 61.667,120.823 61.667 C 121.093 61.667,121.360 61.592,121.417 61.500 C 121.473 61.408,121.853 61.333,122.260 61.333 C 122.667 61.333,123.000 61.277,123.000 61.208 C 123.000 61.140,123.375 61.109,123.833 61.141 C 124.292 61.173,124.667 61.127,124.667 61.040 C 124.667 60.952,125.135 60.832,125.708 60.772 C 126.281 60.712,126.775 60.589,126.806 60.498 C 126.836 60.408,127.230 60.333,127.681 60.333 C 128.131 60.333,128.500 60.269,128.500 60.191 C 128.500 60.112,129.038 59.998,129.696 59.937 C 130.354 59.876,130.976 59.756,131.078 59.671 C 131.181 59.586,131.770 59.465,132.387 59.401 C 133.004 59.338,133.549 59.222,133.598 59.143 C 133.647 59.064,133.944 59.000,134.260 59.000 C 134.575 59.000,134.833 58.930,134.833 58.843 C 134.833 58.757,135.358 58.635,136.000 58.572 C 136.642 58.509,137.167 58.402,137.167 58.336 C 137.167 58.269,137.635 58.165,138.208 58.105 C 138.781 58.046,139.275 57.922,139.306 57.832 C 139.336 57.741,139.655 57.667,140.014 57.667 C 140.373 57.667,140.667 57.600,140.667 57.519 C 140.667 57.438,141.153 57.320,141.748 57.256 C 142.343 57.193,142.873 57.071,142.925 56.987 C 142.977 56.902,143.259 56.833,143.552 56.832 C 143.844 56.832,144.298 56.719,144.561 56.582 C 144.823 56.445,145.288 56.333,145.593 56.333 C 145.897 56.333,146.189 56.266,146.240 56.183 C 146.291 56.100,146.783 55.981,147.333 55.917 C 147.883 55.853,148.333 55.743,148.333 55.674 C 148.333 55.604,148.727 55.500,149.207 55.443 C 149.688 55.386,150.107 55.263,150.138 55.170 C 150.169 55.076,150.484 55.000,150.837 55.000 C 151.191 55.000,151.522 54.932,151.573 54.850 C 151.624 54.767,152.116 54.647,152.666 54.583 C 153.217 54.520,153.667 54.410,153.667 54.340 C 153.667 54.270,154.055 54.167,154.529 54.111 C 155.003 54.055,155.468 53.932,155.562 53.838 C 155.656 53.744,155.962 53.664,156.242 53.661 C 156.521 53.658,156.938 53.548,157.167 53.417 C 157.396 53.286,157.858 53.176,158.194 53.173 C 158.531 53.169,158.833 53.084,158.867 52.984 C 158.900 52.883,159.334 52.769,159.831 52.730 C 160.328 52.691,160.776 52.602,160.826 52.532 C 160.914 52.409,162.185 52.077,163.292 51.889 C 163.590 51.838,163.833 51.730,163.833 51.648 C 163.833 51.567,163.946 51.500,164.083 51.500 C 164.221 51.500,164.333 51.440,164.333 51.367 C 164.333 51.294,164.604 51.265,164.936 51.304 C 165.267 51.343,165.588 51.294,165.649 51.195 C 165.710 51.097,166.207 50.934,166.755 50.833 C 168.483 50.516,168.667 50.466,168.667 50.314 C 168.667 50.233,168.892 50.167,169.167 50.167 C 169.527 50.167,169.670 50.085,169.680 49.875 C 169.688 49.701,169.727 49.667,169.777 49.792 C 169.877 50.040,170.437 50.069,170.583 49.833 C 170.640 49.742,170.865 49.667,171.083 49.667 C 171.302 49.667,171.522 49.599,171.574 49.516 C 171.625 49.433,171.817 49.404,172.000 49.452 C 172.186 49.500,172.333 49.457,172.333 49.353 C 172.333 49.250,172.554 49.167,172.823 49.167 C 173.093 49.167,173.355 49.100,173.405 49.019 C 173.455 48.938,173.833 48.821,174.244 48.760 C 174.656 48.698,175.030 48.587,175.076 48.512 C 175.122 48.438,175.533 48.328,175.989 48.267 C 176.446 48.207,176.865 48.084,176.920 47.995 C 176.975 47.906,177.236 47.833,177.500 47.833 C 177.764 47.833,178.024 47.763,178.077 47.676 C 178.131 47.590,178.529 47.467,178.962 47.403 C 179.395 47.339,179.793 47.220,179.846 47.139 C 179.899 47.058,180.330 46.945,180.804 46.889 C 181.279 46.833,181.667 46.722,181.667 46.643 C 181.667 46.565,181.817 46.500,182.000 46.500 C 182.183 46.500,182.333 46.425,182.333 46.333 C 182.333 46.242,182.577 46.166,182.875 46.166 C 183.173 46.165,183.631 46.053,183.894 45.916 C 184.157 45.779,184.616 45.667,184.915 45.667 C 185.214 45.667,185.553 45.554,185.667 45.417 C 185.781 45.279,186.146 45.164,186.479 45.161 C 186.811 45.158,187.229 45.046,187.407 44.911 C 187.585 44.777,187.932 44.667,188.179 44.667 C 188.426 44.667,188.843 44.555,189.106 44.418 C 189.369 44.281,189.826 44.168,190.124 44.168 C 190.483 44.167,190.734 44.055,190.872 43.833 C 191.032 43.577,191.261 43.500,191.862 43.500 C 192.334 43.500,192.742 43.401,192.893 43.250 C 193.030 43.112,193.396 43.000,193.706 43.000 C 194.016 43.000,194.415 42.890,194.593 42.755 C 194.771 42.621,195.193 42.508,195.530 42.505 C 195.969 42.502,196.171 42.416,196.238 42.204 C 196.312 41.971,196.472 41.921,196.989 41.970 C 197.410 42.011,197.783 41.937,198.027 41.767 C 198.236 41.620,198.601 41.500,198.837 41.500 C 199.314 41.500,200.163 41.153,200.165 40.958 C 200.166 40.890,200.448 40.831,200.792 40.828 C 201.135 40.825,201.562 40.713,201.740 40.578 C 201.918 40.443,202.256 40.333,202.490 40.332 C 202.725 40.332,203.131 40.219,203.394 40.082 C 203.657 39.945,204.088 39.833,204.352 39.833 C 204.617 39.833,204.833 39.761,204.833 39.672 C 204.833 39.584,205.208 39.462,205.667 39.401 C 206.125 39.340,206.500 39.228,206.500 39.151 C 206.500 39.074,206.877 38.962,207.337 38.900 C 207.797 38.839,208.214 38.724,208.264 38.645 C 208.313 38.565,208.499 38.500,208.677 38.500 C 208.854 38.500,209.000 38.435,209.000 38.355 C 209.000 38.275,209.372 38.160,209.826 38.100 C 210.281 38.040,210.698 37.918,210.753 37.829 C 210.808 37.739,211.055 37.666,211.302 37.666 C 211.548 37.665,211.965 37.553,212.227 37.416 C 212.490 37.279,212.884 37.167,213.102 37.167 C 213.321 37.167,213.500 37.099,213.500 37.016 C 213.500 36.933,213.875 36.813,214.333 36.750 C 214.791 36.687,215.203 36.576,215.248 36.504 C 215.293 36.431,215.666 36.321,216.077 36.260 C 216.489 36.198,216.869 36.077,216.923 35.990 C 216.976 35.904,217.165 35.833,217.343 35.833 C 217.521 35.833,217.667 35.740,217.668 35.625 C 217.668 35.489,217.955 35.411,218.495 35.400 C 218.950 35.391,219.422 35.300,219.544 35.199 C 219.667 35.098,220.083 34.964,220.470 34.902 C 220.857 34.840,221.214 34.724,221.264 34.645 C 221.313 34.565,221.536 34.500,221.760 34.500 C 221.984 34.500,222.167 34.425,222.167 34.333 C 222.167 34.242,222.354 34.167,222.583 34.167 C 222.813 34.167,223.000 34.102,223.000 34.023 C 223.000 33.944,223.179 33.914,223.397 33.955 C 223.616 33.997,223.845 33.949,223.907 33.849 C 223.969 33.749,224.160 33.667,224.331 33.667 C 224.503 33.667,224.742 33.573,224.863 33.458 C 224.984 33.344,225.382 33.226,225.748 33.196 C 226.113 33.167,226.451 33.082,226.498 33.008 C 226.545 32.935,226.921 32.818,227.333 32.750 C 227.746 32.682,228.130 32.552,228.188 32.461 C 228.245 32.371,228.635 32.258,229.053 32.211 C 229.472 32.164,229.953 31.996,230.123 31.838 C 230.293 31.680,230.800 31.509,231.252 31.459 C 231.703 31.408,232.100 31.284,232.133 31.183 C 232.167 31.082,232.432 31.000,232.722 30.999 C 233.012 30.998,233.465 30.886,233.727 30.749 C 233.990 30.612,234.377 30.500,234.588 30.500 C 234.800 30.500,234.998 30.424,235.029 30.330 C 235.060 30.237,235.479 30.114,235.959 30.057 C 236.440 30.000,236.833 29.892,236.833 29.816 C 236.833 29.740,237.208 29.628,237.667 29.568 C 238.125 29.507,238.500 29.392,238.500 29.312 C 238.500 29.232,238.650 29.167,238.833 29.167 C 239.017 29.167,239.167 29.092,239.167 29.000 C 239.167 28.908,239.410 28.833,239.708 28.832 C 240.006 28.832,240.445 28.729,240.684 28.605 C 240.922 28.480,241.464 28.327,241.888 28.263 C 242.312 28.199,242.703 28.077,242.756 27.990 C 242.809 27.904,243.074 27.833,243.343 27.833 C 243.613 27.833,243.833 27.758,243.833 27.667 C 243.833 27.575,243.946 27.500,244.083 27.500 C 244.221 27.500,244.333 27.440,244.333 27.367 C 244.333 27.294,244.596 27.264,244.917 27.302 C 245.245 27.340,245.500 27.296,245.500 27.201 C 245.500 27.107,245.875 26.980,246.333 26.917 C 246.791 26.854,247.208 26.734,247.260 26.651 C 247.311 26.568,247.536 26.500,247.760 26.500 C 247.984 26.500,248.167 26.425,248.167 26.333 C 248.167 26.242,248.335 26.166,248.542 26.164 C 249.139 26.161,249.667 25.977,249.668 25.772 C 249.668 25.659,250.005 25.576,250.510 25.566 C 250.973 25.557,251.437 25.463,251.542 25.358 C 251.647 25.253,251.943 25.167,252.200 25.167 C 252.457 25.167,252.667 25.099,252.667 25.016 C 252.667 24.933,253.042 24.813,253.500 24.750 C 253.958 24.687,254.333 24.574,254.333 24.500 C 254.333 24.426,254.708 24.313,255.166 24.250 C 255.625 24.187,256.042 24.067,256.093 23.984 C 256.144 23.901,256.369 23.833,256.593 23.833 C 256.817 23.833,257.000 23.768,257.000 23.688 C 257.000 23.608,257.372 23.494,257.826 23.433 C 258.281 23.373,258.698 23.251,258.753 23.162 C 258.808 23.073,259.055 23.000,259.302 22.999 C 259.548 22.998,259.965 22.886,260.227 22.749 C 260.490 22.612,260.921 22.500,261.186 22.500 C 261.450 22.500,261.667 22.428,261.667 22.339 C 261.667 22.251,262.042 22.128,262.500 22.068 C 262.958 22.007,263.333 21.897,263.333 21.824 C 263.333 21.751,263.746 21.639,264.250 21.576 C 264.754 21.513,265.167 21.395,265.167 21.314 C 265.167 21.233,265.312 21.167,265.490 21.167 C 265.668 21.167,265.854 21.102,265.903 21.022 C 265.952 20.942,266.369 20.827,266.830 20.766 C 267.290 20.705,267.667 20.592,267.667 20.515 C 267.667 20.439,268.057 20.338,268.535 20.292 C 269.012 20.246,269.431 20.124,269.465 20.021 C 269.500 19.918,269.822 19.833,270.181 19.833 C 270.540 19.833,270.833 19.767,270.833 19.686 C 270.833 19.605,271.245 19.487,271.747 19.424 C 272.250 19.361,272.700 19.247,272.748 19.171 C 272.795 19.094,273.209 18.980,273.667 18.917 C 274.125 18.854,274.542 18.734,274.593 18.651 C 274.644 18.568,274.865 18.500,275.083 18.500 C 275.302 18.500,275.522 18.432,275.574 18.349 C 275.625 18.266,276.061 18.145,276.542 18.080 C 277.023 18.016,277.502 17.893,277.607 17.809 C 277.712 17.724,278.181 17.610,278.649 17.554 C 279.117 17.499,279.500 17.394,279.500 17.320 C 279.500 17.247,279.856 17.140,280.292 17.082 C 280.727 17.024,281.237 16.903,281.424 16.812 C 281.611 16.722,281.890 16.629,282.044 16.606 C 282.198 16.584,282.376 16.513,282.440 16.449 C 282.503 16.386,282.764 16.333,283.018 16.333 C 283.272 16.333,283.522 16.265,283.574 16.182 C 283.625 16.099,283.817 16.071,284.001 16.119 C 284.185 16.167,284.430 16.127,284.547 16.030 C 284.663 15.934,285.150 15.803,285.629 15.739 C 286.108 15.676,286.500 15.558,286.500 15.479 C 286.500 15.399,286.688 15.333,286.917 15.333 C 287.146 15.333,287.333 15.268,287.333 15.188 C 287.333 15.059,288.599 14.829,289.375 14.817 C 289.535 14.815,289.667 14.742,289.667 14.656 C 289.667 14.570,289.929 14.500,290.250 14.500 C 290.571 14.500,290.833 14.435,290.833 14.356 C 290.833 14.277,291.012 14.247,291.230 14.289 C 291.449 14.331,291.678 14.283,291.740 14.182 C 291.802 14.082,292.036 14.000,292.260 14.000 C 292.484 14.000,292.667 13.935,292.667 13.855 C 292.667 13.775,293.023 13.668,293.458 13.618 C 293.894 13.568,294.438 13.475,294.667 13.412 C 294.896 13.348,295.327 13.259,295.625 13.213 C 295.923 13.168,296.167 13.065,296.167 12.986 C 296.167 12.907,296.392 12.887,296.667 12.942 C 296.985 13.005,297.167 12.974,297.167 12.854 C 297.167 12.751,297.354 12.667,297.583 12.667 C 297.813 12.667,298.000 12.601,298.000 12.522 C 298.000 12.442,298.600 12.324,299.333 12.260 C 300.067 12.196,300.667 12.074,300.667 11.989 C 300.667 11.903,300.892 11.833,301.167 11.833 C 301.442 11.833,301.667 11.771,301.667 11.696 C 301.667 11.620,301.887 11.590,302.155 11.629 C 302.430 11.670,302.800 11.592,303.000 11.452 C 303.195 11.315,303.500 11.242,303.678 11.288 C 303.856 11.335,304.100 11.291,304.220 11.191 C 304.340 11.092,304.884 10.960,305.428 10.899 C 305.972 10.838,306.504 10.719,306.611 10.636 C 306.717 10.552,307.205 10.450,307.694 10.409 C 308.183 10.368,308.658 10.241,308.750 10.126 C 308.853 9.996,309.217 9.936,309.708 9.967 C 310.144 9.995,310.500 9.949,310.500 9.864 C 310.500 9.779,310.891 9.672,311.368 9.626 C 311.845 9.580,312.265 9.455,312.301 9.348 C 312.350 9.199,312.422 9.199,312.600 9.347 C 312.770 9.488,312.893 9.491,313.054 9.358 C 313.175 9.257,313.815 9.124,314.476 9.063 C 315.137 9.001,315.717 8.887,315.765 8.809 C 315.813 8.731,316.144 8.667,316.500 8.667 C 316.856 8.667,317.187 8.603,317.235 8.525 C 317.283 8.446,317.816 8.337,318.418 8.280 C 319.021 8.224,319.603 8.123,319.712 8.055 C 319.938 7.915,319.935 7.916,321.797 7.745 C 322.556 7.675,323.217 7.554,323.265 7.476 C 323.313 7.397,323.719 7.333,324.167 7.333 C 324.614 7.333,325.027 7.258,325.083 7.167 C 325.140 7.075,325.557 7.000,326.010 7.000 C 326.463 7.000,326.833 6.943,326.833 6.874 C 326.833 6.804,327.178 6.775,327.599 6.808 C 328.021 6.842,328.447 6.786,328.549 6.685 C 328.650 6.583,329.131 6.500,329.617 6.500 C 330.103 6.500,330.500 6.443,330.500 6.374 C 330.500 6.304,330.839 6.275,331.254 6.308 C 331.669 6.341,332.104 6.288,332.222 6.190 C 332.339 6.093,332.956 6.001,333.593 5.985 C 334.229 5.970,334.825 5.902,334.917 5.833 C 335.008 5.765,335.636 5.671,336.311 5.625 C 337.093 5.572,337.590 5.459,337.683 5.313 C 337.788 5.146,337.829 5.140,337.831 5.292 C 337.834 5.541,338.882 5.575,339.321 5.340 C 339.485 5.252,340.174 5.171,340.852 5.161 C 341.529 5.150,342.721 5.064,343.500 4.969 C 344.949 4.793,346.315 4.702,347.694 4.689 C 348.121 4.685,348.518 4.606,348.575 4.514 C 348.644 4.401,348.824 4.401,349.118 4.513 C 349.702 4.735,350.498 4.552,350.505 4.195 C 350.510 3.941,350.530 3.943,350.732 4.208 C 350.992 4.551,352.333 4.628,352.333 4.300 C 352.333 4.144,352.378 4.144,352.533 4.300 C 352.775 4.542,353.939 4.567,354.084 4.333 C 354.153 4.221,354.290 4.221,354.499 4.333 C 354.926 4.561,355.723 4.543,355.967 4.300 C 356.122 4.144,356.211 4.144,356.367 4.300 C 356.630 4.564,357.618 4.557,357.714 4.292 C 357.775 4.125,357.860 4.125,358.143 4.292 C 358.564 4.540,359.500 4.569,359.500 4.333 C 359.500 4.242,359.613 4.167,359.750 4.167 C 359.887 4.167,360.000 4.242,360.000 4.333 C 360.000 4.610,361.285 4.533,361.394 4.250 C 361.529 3.897,361.779 3.940,361.882 4.333 C 362.055 4.997,363.333 4.674,363.333 3.967 C 363.333 3.695,363.149 3.667,361.343 3.667 C 360.193 3.667,359.309 3.596,359.250 3.500 C 359.093 3.247,350.710 3.299,350.606 3.554 C 350.548 3.696,350.523 3.693,350.513 3.542 C 350.498 3.305,349.075 3.244,348.933 3.474 M363.500 4.076 C 363.500 4.766,364.679 5.100,365.000 4.500 C 365.240 4.051,365.442 4.080,365.568 4.583 C 365.704 5.124,366.482 5.167,366.804 4.651 C 367.162 4.078,366.657 3.859,364.958 3.850 C 363.814 3.844,363.500 3.892,363.500 4.076 M367.333 4.494 C 367.333 5.056,368.370 5.413,368.560 4.917 C 368.738 4.453,368.486 4.167,367.899 4.167 C 367.448 4.167,367.333 4.233,367.333 4.494 M369.708 4.454 C 369.410 4.491,369.167 4.585,369.167 4.664 C 369.167 5.085,369.414 5.333,369.833 5.333 C 370.308 5.333,370.627 4.932,370.308 4.735 C 370.190 4.662,370.207 4.577,370.357 4.482 C 370.482 4.403,370.508 4.349,370.417 4.363 C 370.325 4.376,370.006 4.417,369.708 4.454 M371.058 5.091 C 370.931 5.419,370.993 5.474,371.637 5.602 C 372.293 5.734,372.438 5.111,371.792 4.938 C 371.242 4.791,371.166 4.807,371.058 5.091 M372.892 5.420 C 372.769 5.742,372.803 5.778,373.374 5.921 C 373.776 6.022,374.237 5.651,373.979 5.433 C 373.703 5.199,372.980 5.190,372.892 5.420 M374.698 5.958 C 374.783 6.410,375.667 6.458,375.667 6.011 C 375.667 5.738,375.561 5.667,375.154 5.667 C 374.757 5.667,374.655 5.732,374.698 5.958 M376.561 6.204 C 376.438 6.403,376.640 6.596,377.125 6.742 C 377.424 6.833,377.500 6.790,377.500 6.531 C 377.500 6.180,376.739 5.915,376.561 6.204 M378.364 6.792 C 378.434 7.161,379.333 7.306,379.333 6.947 C 379.333 6.814,379.165 6.660,378.958 6.605 C 378.384 6.451,378.304 6.476,378.364 6.792 M380.167 7.333 C 380.167 7.576,380.278 7.667,380.573 7.667 C 381.109 7.667,381.261 7.395,380.849 7.175 C 380.363 6.915,380.167 6.961,380.167 7.333 M382.000 7.833 C 382.000 8.017,382.069 8.167,382.153 8.167 C 382.237 8.167,382.425 8.212,382.570 8.268 C 382.958 8.417,382.905 7.883,382.511 7.673 C 382.063 7.433,382.000 7.453,382.000 7.833 M383.721 8.381 C 383.604 8.570,384.109 9.000,384.449 9.000 C 384.569 9.000,384.667 8.859,384.667 8.686 C 384.667 8.338,383.900 8.091,383.721 8.381 M385.401 9.025 C 385.273 9.232,385.757 9.667,386.115 9.667 C 386.425 9.667,386.387 9.056,386.070 8.934 C 385.688 8.788,385.535 8.809,385.401 9.025 M387.104 9.757 C 386.962 10.126,386.957 10.117,387.343 10.218 C 387.618 10.290,387.676 10.238,387.635 9.958 C 387.570 9.521,387.242 9.396,387.104 9.757 M395.235 17.083 C 395.103 17.610,395.249 18.000,395.578 18.000 C 395.765 18.000,395.833 17.821,395.833 17.333 C 395.833 16.564,395.410 16.387,395.235 17.083 M8.167 43.639 C 8.167 44.304,8.979 45.302,9.339 45.080 C 9.428 45.025,9.500 45.103,9.500 45.253 C 9.500 45.601,10.392 46.500,10.737 46.500 C 10.882 46.500,11.000 46.585,11.000 46.689 C 11.000 47.000,11.689 47.500,12.119 47.500 C 12.360 47.500,12.476 47.571,12.410 47.678 C 12.250 47.937,13.185 48.823,13.625 48.829 C 13.886 48.832,14.000 48.934,14.000 49.163 C 14.000 49.374,14.147 49.530,14.405 49.595 C 14.627 49.651,14.853 49.811,14.907 49.951 C 14.965 50.103,15.131 50.171,15.322 50.121 C 15.552 50.061,15.667 50.145,15.737 50.425 C 15.790 50.637,15.984 50.859,16.167 50.917 C 16.350 50.975,16.500 51.092,16.500 51.178 C 16.500 51.263,16.608 51.333,16.740 51.333 C 16.872 51.333,17.226 51.558,17.527 51.833 C 17.828 52.108,18.245 52.333,18.454 52.333 C 18.680 52.333,18.833 52.434,18.833 52.583 C 18.833 52.721,18.946 52.833,19.083 52.833 C 19.221 52.833,19.333 52.897,19.333 52.975 C 19.333 53.052,19.633 53.251,20.000 53.417 C 20.367 53.582,20.667 53.764,20.667 53.822 C 20.667 53.940,21.683 54.389,21.875 54.355 C 21.944 54.343,22.000 54.408,22.000 54.500 C 22.000 54.592,22.078 54.667,22.174 54.667 C 22.269 54.667,22.508 54.817,22.705 55.000 C 22.902 55.183,23.201 55.333,23.370 55.333 C 23.539 55.333,23.720 55.444,23.771 55.579 C 23.862 55.815,24.863 56.110,25.292 56.026 C 25.406 56.004,25.500 56.133,25.500 56.313 C 25.500 56.541,25.651 56.673,26.000 56.750 C 26.275 56.810,26.500 56.921,26.500 56.995 C 26.500 57.069,26.762 57.179,27.083 57.239 C 27.404 57.299,27.667 57.401,27.668 57.466 C 27.669 57.591,28.468 58.000,28.710 58.000 C 28.790 58.000,28.831 57.760,28.802 57.466 C 28.732 56.751,27.747 56.103,27.417 56.555 C 27.144 56.927,27.012 56.907,27.116 56.508 C 27.219 56.116,26.252 55.450,25.792 55.596 C 25.612 55.654,25.500 55.603,25.500 55.464 C 25.500 55.182,24.649 54.667,24.183 54.667 C 23.991 54.667,23.833 54.597,23.833 54.511 C 23.833 54.282,22.889 53.650,22.502 53.621 C 22.317 53.607,22.166 53.518,22.166 53.423 C 22.164 53.240,21.258 52.667,20.969 52.667 C 20.875 52.667,20.650 52.479,20.470 52.250 C 20.290 52.021,20.031 51.833,19.895 51.833 C 19.751 51.833,19.697 51.753,19.765 51.643 C 19.846 51.511,19.746 51.478,19.441 51.536 C 19.092 51.603,19.000 51.556,19.000 51.310 C 19.000 51.140,18.897 51.000,18.770 51.000 C 18.644 51.000,18.447 50.887,18.333 50.750 C 18.219 50.612,17.985 50.500,17.813 50.500 C 17.641 50.500,17.500 50.404,17.500 50.286 C 17.500 50.013,16.640 49.500,16.183 49.500 C 15.959 49.500,15.833 49.393,15.833 49.204 C 15.833 48.840,15.316 48.377,14.753 48.236 C 14.522 48.178,14.333 48.025,14.333 47.895 C 14.333 47.765,14.146 47.574,13.917 47.470 C 13.688 47.365,13.500 47.217,13.500 47.140 C 13.500 47.063,13.350 47.000,13.167 47.000 C 12.983 47.000,12.833 46.892,12.833 46.759 C 12.833 46.627,12.608 46.386,12.333 46.223 C 12.058 46.061,11.833 45.869,11.833 45.797 C 11.833 45.725,11.721 45.667,11.583 45.667 C 11.446 45.667,11.333 45.586,11.333 45.487 C 11.333 45.122,10.331 44.295,9.995 44.383 C 9.761 44.444,9.667 44.385,9.667 44.177 C 9.667 43.739,8.957 43.000,8.536 43.000 C 8.219 43.000,8.167 43.090,8.167 43.639 M29.208 57.286 C 28.917 57.391,28.942 58.167,29.236 58.167 C 29.366 58.167,29.497 58.236,29.528 58.321 C 29.714 58.839,30.523 58.699,30.470 58.157 C 30.415 57.593,29.709 57.106,29.208 57.286 M30.771 58.354 C 30.472 58.781,30.553 59.000,31.010 59.000 C 31.188 59.000,31.333 59.080,31.333 59.178 C 31.333 59.519,32.082 59.260,32.133 58.902 C 32.232 58.212,31.170 57.784,30.771 58.354 M32.625 59.044 C 32.321 59.507,32.584 59.838,33.296 59.886 C 33.953 59.930,34.045 59.150,33.417 58.864 C 32.867 58.613,32.914 58.602,32.625 59.044 M34.444 59.611 C 34.202 59.854,34.341 60.333,34.653 60.333 C 34.829 60.333,35.082 60.375,35.215 60.426 C 35.590 60.570,35.741 59.967,35.394 59.713 C 35.079 59.482,34.622 59.433,34.444 59.611 M36.246 60.346 C 36.113 60.764,36.114 60.765,36.792 60.910 C 37.484 61.059,37.576 60.497,36.909 60.193 C 36.361 59.944,36.375 59.941,36.246 60.346 M38.064 60.907 C 37.931 61.253,37.988 61.306,38.637 61.436 C 39.099 61.528,39.167 61.497,39.167 61.188 C 39.167 60.993,39.060 60.833,38.930 60.833 C 38.800 60.833,38.576 60.788,38.432 60.733 C 38.273 60.672,38.128 60.741,38.064 60.907 M39.883 61.444 C 39.769 61.740,39.810 61.779,40.375 61.921 C 40.760 62.018,40.833 61.983,40.833 61.704 C 40.833 61.295,40.025 61.074,39.883 61.444 M41.667 61.977 C 41.667 62.373,42.479 62.582,42.617 62.222 C 42.728 61.933,42.701 61.908,42.125 61.770 C 41.747 61.680,41.667 61.716,41.667 61.977 M43.500 62.500 C 43.500 62.759,43.611 62.833,44.000 62.833 C 44.539 62.833,44.701 62.446,44.236 62.268 C 43.754 62.083,43.500 62.163,43.500 62.500 M45.333 62.899 C 45.333 63.117,45.672 63.333,46.014 63.333 C 46.098 63.333,46.167 63.183,46.167 63.000 C 46.167 62.756,46.056 62.667,45.750 62.667 C 45.505 62.667,45.333 62.762,45.333 62.899 M47.028 63.279 C 47.065 63.471,47.260 63.603,47.558 63.637 C 47.939 63.681,48.018 63.633,47.972 63.387 C 47.935 63.196,47.740 63.063,47.442 63.029 C 47.061 62.985,46.982 63.034,47.028 63.279 M48.833 63.566 C 48.833 63.804,49.178 64.000,49.597 64.000 C 49.979 64.000,49.868 63.548,49.458 63.438 C 48.912 63.292,48.833 63.308,48.833 63.566 M50.667 63.899 C 50.667 64.137,51.011 64.333,51.430 64.333 C 51.560 64.333,51.667 64.183,51.667 64.000 C 51.667 63.741,51.556 63.667,51.167 63.667 C 50.850 63.667,50.667 63.752,50.667 63.899 M52.500 64.232 C 52.500 64.471,52.845 64.667,53.264 64.667 C 53.394 64.667,53.500 64.517,53.500 64.333 C 53.500 64.074,53.389 64.000,53.000 64.000 C 52.684 64.000,52.500 64.085,52.500 64.232 M54.333 64.400 C 54.333 64.778,55.001 65.099,55.185 64.809 C 55.405 64.462,55.268 64.255,54.779 64.197 C 54.467 64.160,54.333 64.221,54.333 64.400 M56.000 64.661 C 56.000 64.897,56.654 65.207,56.930 65.101 C 57.424 64.912,57.186 64.500,56.583 64.500 C 56.262 64.500,56.000 64.572,56.000 64.661 M57.944 64.778 C 57.732 64.990,57.836 65.135,58.321 65.304 C 58.801 65.471,59.000 65.330,59.000 64.820 C 59.000 64.645,58.113 64.610,57.944 64.778 M59.778 64.778 C 59.437 65.118,59.687 65.500,60.250 65.500 C 60.761 65.500,60.833 65.448,60.833 65.083 C 60.833 64.673,60.096 64.459,59.778 64.778 M61.563 65.075 C 61.419 65.452,61.641 65.667,62.177 65.667 C 62.588 65.667,62.667 65.600,62.667 65.250 C 62.667 64.769,61.737 64.622,61.563 65.075 M63.363 64.985 C 63.023 65.202,63.478 65.833,63.975 65.833 C 64.425 65.833,64.653 65.545,64.664 64.963 C 64.667 64.823,63.588 64.841,63.363 64.985 M64.917 64.972 C 64.878 65.010,64.958 65.258,65.094 65.521 C 65.335 65.987,66.333 66.250,66.333 65.847 C 66.333 65.763,66.375 65.585,66.426 65.452 C 66.546 65.139,65.184 64.705,64.917 64.972 " stroke="none" fill="#fcfcfc" fill-rule="evenodd"></path><path id="path1" d="M350.443 4.408 C 350.373 4.592,350.034 4.647,349.021 4.641 C 348.289 4.636,347.616 4.678,347.524 4.735 C 347.432 4.792,347.307 4.759,347.247 4.661 C 347.179 4.552,347.063 4.542,346.943 4.636 C 346.771 4.772,345.868 4.866,342.417 5.107 C 341.867 5.146,341.042 5.242,340.583 5.320 C 340.079 5.407,339.727 5.402,339.692 5.308 C 339.657 5.213,339.559 5.215,339.441 5.313 C 339.335 5.401,338.761 5.518,338.165 5.573 C 337.570 5.627,336.371 5.782,335.500 5.918 C 334.629 6.053,333.392 6.239,332.750 6.330 C 331.162 6.555,327.786 7.112,326.667 7.335 C 326.162 7.435,325.300 7.588,324.750 7.674 C 323.512 7.869,320.341 8.459,319.333 8.681 C 318.921 8.772,318.208 8.912,317.750 8.991 C 317.046 9.112,315.189 9.499,309.583 10.693 C 309.125 10.791,308.398 10.975,307.969 11.102 C 307.539 11.229,307.057 11.333,306.897 11.333 C 306.738 11.333,306.377 11.402,306.095 11.486 C 305.159 11.764,304.092 12.023,303.333 12.156 C 302.478 12.305,301.076 12.652,300.583 12.835 C 300.400 12.904,299.837 13.046,299.333 13.151 C 297.716 13.490,295.710 13.994,295.250 14.178 C 295.067 14.251,294.562 14.357,294.129 14.415 C 293.696 14.472,293.297 14.590,293.244 14.676 C 293.191 14.763,292.945 14.833,292.698 14.833 C 292.452 14.832,291.912 14.940,291.500 15.073 C 291.087 15.206,290.300 15.434,289.750 15.579 C 289.200 15.725,288.525 15.912,288.250 15.995 C 287.975 16.079,287.450 16.194,287.083 16.252 C 286.717 16.310,286.267 16.424,286.083 16.506 C 285.772 16.645,283.144 17.370,281.833 17.679 C 281.078 17.857,279.616 18.269,278.667 18.573 C 278.254 18.705,277.317 18.971,276.583 19.165 C 274.947 19.598,272.518 20.287,269.583 21.149 C 268.667 21.419,267.167 21.846,266.250 22.100 C 265.333 22.353,264.546 22.612,264.500 22.675 C 264.454 22.739,264.154 22.828,263.833 22.874 C 263.512 22.920,263.025 23.036,262.750 23.131 C 262.475 23.227,261.800 23.435,261.250 23.594 C 260.022 23.948,259.288 24.167,256.833 24.910 C 255.779 25.229,254.710 25.538,254.457 25.597 C 254.204 25.656,253.956 25.770,253.905 25.852 C 253.855 25.933,253.632 26.000,253.410 26.000 C 253.188 26.000,252.724 26.105,252.378 26.233 C 252.033 26.361,251.188 26.631,250.500 26.833 C 247.979 27.572,247.574 27.704,247.111 27.933 C 246.852 28.062,246.439 28.167,246.195 28.168 C 245.950 28.168,245.535 28.281,245.273 28.418 C 245.010 28.555,244.710 28.667,244.606 28.667 C 244.343 28.667,240.149 29.982,239.794 30.175 C 239.635 30.262,239.335 30.334,239.127 30.334 C 238.920 30.335,238.535 30.447,238.273 30.584 C 238.010 30.721,237.704 30.833,237.592 30.833 C 237.363 30.833,235.259 31.451,234.750 31.667 C 234.353 31.836,231.622 32.680,229.083 33.418 C 228.533 33.577,227.966 33.766,227.822 33.837 C 227.678 33.907,227.078 34.089,226.490 34.240 C 225.901 34.390,225.348 34.586,225.260 34.674 C 225.172 34.761,224.909 34.836,224.675 34.839 C 224.441 34.842,224.063 34.952,223.833 35.083 C 223.604 35.214,223.241 35.324,223.025 35.327 C 222.810 35.331,222.397 35.433,222.109 35.555 C 221.358 35.871,220.164 36.242,218.250 36.754 C 217.333 36.999,216.512 37.267,216.425 37.350 C 216.338 37.432,216.113 37.500,215.925 37.501 C 215.737 37.502,215.391 37.602,215.157 37.725 C 214.922 37.847,214.401 38.000,213.998 38.064 C 213.596 38.129,213.188 38.239,213.092 38.309 C 212.995 38.380,212.317 38.611,211.583 38.824 C 210.850 39.036,209.600 39.425,208.807 39.688 C 208.013 39.951,207.237 40.167,207.082 40.167 C 206.927 40.167,206.564 40.272,206.275 40.401 C 205.501 40.746,199.804 42.475,198.167 42.861 C 197.754 42.959,197.338 43.102,197.242 43.179 C 197.146 43.256,196.733 43.370,196.325 43.432 C 195.917 43.494,195.508 43.601,195.417 43.669 C 195.325 43.737,194.688 43.959,194.000 44.164 C 193.313 44.368,192.418 44.640,192.012 44.768 C 191.606 44.895,191.156 45.000,191.012 45.001 C 190.868 45.002,190.558 45.102,190.323 45.225 C 190.089 45.347,189.568 45.500,189.165 45.564 C 188.763 45.629,188.354 45.744,188.258 45.820 C 188.162 45.896,187.858 46.000,187.583 46.051 C 187.308 46.102,186.708 46.260,186.250 46.402 C 185.792 46.544,184.442 46.933,183.250 47.266 C 182.058 47.600,181.058 47.939,181.028 48.020 C 180.997 48.101,180.756 48.167,180.492 48.167 C 180.228 48.167,179.690 48.268,179.297 48.391 C 178.905 48.514,178.133 48.741,177.583 48.895 C 177.033 49.050,176.208 49.283,175.750 49.413 C 174.960 49.638,173.514 50.038,172.417 50.335 C 172.142 50.410,171.542 50.585,171.083 50.725 C 170.625 50.865,169.612 51.136,168.833 51.328 C 168.054 51.520,167.079 51.784,166.667 51.914 C 166.254 52.045,165.129 52.349,164.167 52.591 C 163.204 52.832,162.042 53.127,161.583 53.247 C 161.125 53.366,160.412 53.547,160.000 53.650 C 159.587 53.753,158.350 54.061,157.250 54.335 C 156.150 54.609,154.875 54.942,154.417 55.076 C 153.958 55.209,152.683 55.517,151.583 55.759 C 150.483 56.001,149.283 56.295,148.917 56.413 C 148.550 56.530,147.837 56.708,147.333 56.808 C 146.829 56.907,145.404 57.221,144.167 57.506 C 142.929 57.791,141.204 58.170,140.333 58.349 C 139.462 58.528,138.112 58.819,137.333 58.996 C 134.399 59.661,133.521 59.845,131.833 60.152 C 131.329 60.243,130.354 60.433,129.667 60.573 C 127.129 61.090,125.608 61.373,123.333 61.750 C 122.462 61.894,121.150 62.123,120.417 62.259 C 119.683 62.396,118.596 62.577,118.000 62.662 C 117.404 62.747,116.467 62.897,115.917 62.996 C 114.816 63.192,112.755 63.473,107.833 64.095 C 103.066 64.698,101.652 64.844,101.497 64.748 C 101.421 64.701,101.184 64.735,100.971 64.824 C 100.627 64.968,95.114 65.496,92.917 65.596 C 92.458 65.617,91.596 65.684,91.000 65.746 C 90.404 65.808,89.182 65.882,88.284 65.909 C 87.386 65.937,86.605 66.006,86.548 66.063 C 86.366 66.245,85.241 66.174,85.033 65.967 C 84.878 65.811,84.833 65.812,84.833 65.972 C 84.833 66.116,84.520 66.171,83.792 66.154 C 83.219 66.141,82.541 66.184,82.285 66.251 C 81.953 66.338,81.732 66.293,81.514 66.096 C 81.242 65.850,81.197 65.848,81.109 66.076 C 80.993 66.379,79.835 66.435,79.552 66.152 C 79.422 66.022,79.340 66.022,79.259 66.152 C 79.068 66.461,77.885 66.374,77.757 66.042 C 77.650 65.764,77.636 65.764,77.481 66.042 C 77.294 66.374,76.184 66.451,75.885 66.152 C 75.755 66.022,75.673 66.022,75.592 66.152 C 75.447 66.387,74.287 66.387,74.052 66.152 C 73.922 66.022,73.840 66.022,73.759 66.152 C 73.582 66.438,72.340 66.378,72.225 66.078 C 72.138 65.853,72.105 65.854,71.931 66.092 C 71.634 66.498,70.641 66.351,70.401 65.866 C 70.215 65.492,70.208 65.491,70.121 65.823 C 69.945 66.498,68.787 66.476,68.571 65.794 L 68.453 65.422 68.311 65.805 C 68.087 66.411,66.938 66.269,66.864 65.625 C 66.805 65.113,66.500 64.991,66.500 65.480 C 66.500 66.418,65.204 66.286,64.944 65.322 C 64.787 64.737,64.770 64.748,64.595 65.542 C 64.425 66.310,63.167 66.048,63.167 65.244 C 63.167 64.983,63.072 64.833,62.907 64.833 C 62.764 64.833,62.694 64.909,62.751 65.001 C 62.975 65.364,62.650 65.833,62.176 65.833 C 61.616 65.833,61.261 65.462,61.381 65.001 C 61.435 64.795,61.387 64.667,61.255 64.667 C 61.138 64.667,60.997 64.892,60.942 65.167 C 60.793 65.912,59.776 65.848,59.642 65.085 C 59.595 64.818,59.699 64.734,60.167 64.656 L 60.750 64.560 60.083 64.442 C 59.717 64.376,59.042 64.253,58.583 64.168 C 58.125 64.083,57.075 63.891,56.250 63.742 C 54.814 63.482,54.195 63.357,52.625 63.010 C 50.709 62.586,50.193 62.461,49.500 62.257 C 49.087 62.135,48.300 61.913,47.750 61.763 C 46.910 61.535,45.516 61.086,40.583 59.455 C 40.308 59.364,39.708 59.121,39.250 58.915 C 37.836 58.279,37.265 58.042,36.856 57.918 C 36.639 57.852,35.364 57.244,34.022 56.566 C 32.681 55.888,31.493 55.334,31.384 55.334 C 31.274 55.333,30.982 55.146,30.734 54.917 C 30.487 54.688,30.174 54.500,30.039 54.500 C 29.904 54.500,29.538 54.275,29.225 54.000 C 28.911 53.725,28.475 53.500,28.255 53.500 C 28.012 53.500,27.817 53.379,27.757 53.190 C 27.703 53.020,27.342 52.742,26.955 52.573 C 26.567 52.404,26.004 52.056,25.703 51.799 C 25.401 51.543,25.057 51.333,24.937 51.333 C 24.817 51.333,24.576 51.176,24.401 50.983 C 24.227 50.790,23.862 50.518,23.590 50.377 C 23.318 50.236,22.881 49.907,22.618 49.644 C 22.356 49.381,22.061 49.167,21.964 49.167 C 21.787 49.167,20.700 48.275,19.732 47.336 C 19.447 47.060,19.144 46.833,19.058 46.833 C 18.973 46.833,18.627 46.533,18.290 46.167 C 17.953 45.800,17.562 45.500,17.422 45.500 C 17.281 45.500,17.167 45.431,17.167 45.346 C 17.167 44.468,15.312 43.649,14.292 44.076 L 13.667 44.338 13.667 45.368 C 13.667 46.364,14.176 47.333,14.698 47.333 C 14.773 47.333,15.105 47.633,15.436 48.000 C 15.768 48.367,16.144 48.667,16.274 48.667 C 16.403 48.667,16.577 48.847,16.660 49.066 C 16.747 49.295,17.140 49.630,17.578 49.849 C 18.018 50.068,18.311 50.318,18.266 50.435 C 18.221 50.554,18.502 50.788,18.934 50.991 C 19.344 51.184,19.721 51.449,19.772 51.580 C 19.822 51.711,20.194 51.978,20.598 52.174 C 21.003 52.370,21.390 52.617,21.458 52.723 C 21.602 52.946,21.955 53.169,22.981 53.684 C 23.383 53.886,23.746 54.185,23.789 54.347 C 23.831 54.510,23.965 54.606,24.087 54.559 C 24.348 54.459,24.936 54.741,25.458 55.217 C 25.665 55.404,25.833 55.506,25.833 55.442 C 25.833 55.379,26.133 55.480,26.500 55.667 C 26.867 55.854,27.167 56.080,27.167 56.170 C 27.167 56.260,27.320 56.333,27.508 56.333 C 28.174 56.333,28.833 56.810,28.838 57.296 C 28.843 57.685,28.868 57.708,29.013 57.458 C 29.375 56.838,30.498 57.298,30.504 58.068 L 30.507 58.583 30.817 58.181 L 31.126 57.779 31.688 58.110 C 32.108 58.358,32.248 58.554,32.243 58.887 C 32.240 59.133,32.296 59.333,32.368 59.333 C 32.441 59.333,32.500 59.225,32.500 59.093 C 32.500 58.741,32.777 58.628,33.338 58.751 C 33.889 58.872,34.173 59.508,33.848 59.898 C 33.702 60.075,33.728 60.144,33.963 60.205 C 34.177 60.261,34.273 60.186,34.291 59.951 C 34.331 59.427,34.579 59.276,35.110 59.453 C 35.771 59.674,35.818 60.602,35.167 60.550 L 34.750 60.517 35.167 60.691 C 35.396 60.787,35.966 61.045,36.433 61.266 C 36.901 61.486,37.426 61.669,37.600 61.672 C 37.774 61.675,38.062 61.787,38.240 61.922 C 38.418 62.057,38.681 62.167,38.824 62.168 C 38.966 62.169,39.458 62.354,39.917 62.580 C 40.375 62.805,40.873 62.992,41.023 62.995 C 41.173 62.998,41.510 63.112,41.773 63.249 C 42.035 63.386,42.407 63.498,42.599 63.499 C 42.792 63.500,43.191 63.621,43.487 63.768 C 43.999 64.024,44.716 64.251,46.583 64.751 C 47.042 64.873,47.867 65.101,48.417 65.258 C 48.967 65.414,49.717 65.604,50.083 65.681 C 50.450 65.757,51.237 65.937,51.833 66.081 C 53.017 66.367,53.476 66.461,56.333 66.997 C 58.275 67.362,58.733 67.434,62.167 67.910 C 72.846 69.390,89.664 69.393,102.167 67.916 C 103.404 67.770,105.167 67.583,106.083 67.501 C 107.000 67.419,107.900 67.311,108.083 67.260 C 108.267 67.209,109.092 67.096,109.917 67.008 C 110.742 66.920,112.204 66.726,113.167 66.576 C 114.129 66.427,115.329 66.245,115.833 66.173 C 118.834 65.742,120.571 65.468,121.750 65.240 C 122.483 65.098,123.721 64.873,124.500 64.740 C 129.377 63.906,129.593 63.867,130.277 63.689 C 130.629 63.597,131.592 63.399,132.417 63.248 C 135.015 62.774,136.407 62.471,136.706 62.317 C 136.865 62.234,137.229 62.167,137.514 62.167 C 137.799 62.167,138.419 62.063,138.891 61.935 C 139.363 61.808,140.200 61.612,140.750 61.501 C 141.300 61.389,142.350 61.156,143.083 60.983 C 143.817 60.811,145.092 60.521,145.917 60.340 C 146.742 60.159,147.867 59.894,148.417 59.752 C 149.445 59.485,149.907 59.378,151.917 58.943 C 152.558 58.804,153.983 58.456,155.083 58.171 C 156.183 57.885,157.383 57.584,157.750 57.501 C 158.117 57.418,158.829 57.241,159.333 57.107 C 159.837 56.972,161.112 56.635,162.167 56.357 C 163.221 56.079,164.496 55.737,165.000 55.598 C 165.504 55.458,166.742 55.141,167.750 54.893 C 168.758 54.645,169.608 54.380,169.639 54.305 C 169.669 54.229,169.895 54.167,170.140 54.167 C 170.385 54.167,170.848 54.088,171.168 53.992 C 171.700 53.832,173.293 53.387,175.667 52.735 C 176.171 52.596,176.921 52.412,177.333 52.326 C 177.746 52.239,178.233 52.102,178.417 52.019 C 178.600 51.937,179.200 51.749,179.750 51.601 C 181.077 51.243,183.459 50.559,184.083 50.357 C 184.358 50.268,185.033 50.068,185.583 49.913 C 186.133 49.758,186.886 49.527,187.256 49.399 C 187.625 49.271,188.079 49.167,188.264 49.167 C 188.449 49.167,188.671 49.100,188.758 49.018 C 188.845 48.936,189.254 48.791,189.667 48.695 C 191.021 48.383,191.911 48.141,192.250 47.993 C 192.808 47.749,196.831 46.575,198.667 46.120 C 199.079 46.018,199.454 45.889,199.500 45.833 C 199.546 45.778,199.921 45.652,200.333 45.553 C 200.746 45.455,201.421 45.257,201.833 45.115 C 202.246 44.972,203.033 44.726,203.583 44.568 C 204.133 44.411,204.883 44.189,205.250 44.075 C 205.617 43.961,206.367 43.738,206.917 43.578 C 207.467 43.418,208.067 43.223,208.250 43.146 C 208.433 43.069,208.883 42.938,209.250 42.854 C 209.617 42.770,210.292 42.575,210.750 42.419 C 212.707 41.754,214.075 41.343,214.750 41.218 C 215.025 41.167,215.328 41.063,215.423 40.988 C 215.519 40.912,215.894 40.776,216.257 40.684 C 217.616 40.341,219.401 39.811,219.572 39.700 C 219.759 39.580,220.795 39.266,221.917 38.991 C 222.283 38.901,222.733 38.762,222.917 38.683 C 223.100 38.603,223.813 38.367,224.500 38.159 C 225.188 37.951,226.400 37.568,227.193 37.307 C 227.987 37.047,228.775 36.833,228.943 36.832 C 229.112 36.832,229.465 36.719,229.727 36.582 C 229.990 36.445,230.290 36.334,230.394 36.336 C 230.595 36.338,232.687 35.718,233.250 35.489 C 233.433 35.415,234.258 35.153,235.083 34.907 C 235.908 34.661,236.830 34.357,237.131 34.230 C 237.432 34.104,237.797 34.000,237.942 34.000 C 238.215 34.000,239.721 33.547,240.178 33.327 C 240.322 33.258,240.922 33.078,241.510 32.927 C 242.099 32.776,242.652 32.581,242.740 32.493 C 242.828 32.405,243.091 32.331,243.325 32.327 C 243.559 32.324,243.938 32.214,244.167 32.083 C 244.396 31.952,244.771 31.842,245.000 31.838 C 245.229 31.834,245.631 31.719,245.894 31.582 C 246.157 31.445,246.518 31.333,246.697 31.333 C 246.876 31.333,247.186 31.245,247.386 31.137 C 247.586 31.030,248.012 30.885,248.333 30.816 C 249.398 30.587,251.416 29.933,251.472 29.799 C 251.503 29.726,251.711 29.667,251.936 29.667 C 252.160 29.667,252.585 29.566,252.880 29.443 C 253.175 29.320,253.707 29.165,254.062 29.098 C 254.417 29.032,254.830 28.917,254.979 28.843 C 255.128 28.769,255.662 28.588,256.167 28.440 C 259.307 27.523,260.100 27.270,260.242 27.143 C 260.329 27.064,260.617 27.000,260.883 27.000 C 261.149 27.000,261.603 26.899,261.891 26.775 C 262.180 26.651,262.717 26.470,263.083 26.373 C 264.688 25.948,268.634 24.795,269.167 24.596 C 269.487 24.476,270.200 24.251,270.750 24.097 C 271.300 23.942,272.098 23.707,272.522 23.575 C 272.947 23.442,273.438 23.333,273.614 23.333 C 273.790 23.333,274.005 23.266,274.092 23.184 C 274.179 23.102,274.587 22.956,275.000 22.859 C 275.945 22.638,277.252 22.280,278.750 21.832 C 279.392 21.640,280.629 21.298,281.500 21.072 C 282.371 20.846,283.233 20.593,283.417 20.510 C 283.600 20.427,284.084 20.313,284.492 20.256 C 284.900 20.199,285.312 20.091,285.408 20.016 C 285.505 19.941,285.846 19.833,286.167 19.775 C 286.487 19.718,287.162 19.551,287.667 19.403 C 288.171 19.256,288.921 19.063,289.333 18.974 C 289.746 18.885,290.196 18.766,290.333 18.710 C 290.568 18.615,291.898 18.272,292.833 18.065 C 293.063 18.014,293.362 17.928,293.500 17.873 C 293.637 17.817,294.162 17.679,294.667 17.565 C 295.171 17.451,295.958 17.273,296.417 17.169 C 296.875 17.066,297.400 16.916,297.583 16.836 C 297.767 16.757,298.142 16.644,298.417 16.586 C 298.692 16.529,299.404 16.369,300.000 16.232 C 300.596 16.095,301.421 15.912,301.833 15.825 C 302.246 15.738,302.771 15.599,303.000 15.517 C 303.229 15.434,304.017 15.242,304.750 15.090 C 305.483 14.937,306.214 14.742,306.373 14.656 C 306.532 14.570,306.907 14.497,307.206 14.493 C 307.505 14.489,308.050 14.377,308.417 14.245 C 308.783 14.113,309.253 14.004,309.461 14.003 C 309.668 14.001,309.968 13.933,310.127 13.852 C 310.286 13.771,310.867 13.616,311.417 13.509 C 311.967 13.402,313.842 13.015,315.583 12.649 C 317.325 12.283,319.162 11.917,319.667 11.837 C 320.171 11.757,321.108 11.567,321.750 11.416 C 322.392 11.264,323.292 11.080,323.750 11.007 C 325.303 10.758,327.743 10.348,329.250 10.082 C 331.356 9.711,335.420 9.131,340.250 8.513 C 345.511 7.840,351.167 7.417,357.250 7.242 C 360.818 7.140,368.877 7.385,371.389 7.672 C 374.264 8.001,376.917 8.348,377.667 8.494 C 378.079 8.574,379.129 8.766,380.000 8.921 C 380.871 9.076,381.755 9.269,381.965 9.351 C 382.174 9.432,382.756 9.547,383.256 9.606 C 383.757 9.664,384.167 9.777,384.167 9.856 C 384.167 9.935,384.383 10.000,384.646 10.000 C 384.910 10.000,385.395 10.113,385.724 10.250 C 386.053 10.388,386.513 10.500,386.745 10.500 C 386.977 10.500,387.167 10.568,387.167 10.652 C 387.167 10.736,387.485 10.857,387.875 10.922 C 388.265 10.987,388.862 11.181,389.202 11.353 C 389.542 11.526,389.917 11.669,390.035 11.672 C 390.153 11.675,390.550 11.823,390.917 12.000 C 391.283 12.177,391.713 12.325,391.871 12.328 C 392.029 12.331,392.404 12.483,392.704 12.666 C 393.694 13.270,394.723 13.133,395.075 12.351 C 395.492 11.427,395.162 10.000,394.531 10.000 C 394.372 10.000,394.093 9.898,393.912 9.774 C 393.348 9.386,387.408 7.333,386.851 7.333 C 386.695 7.333,386.495 7.264,386.408 7.179 C 386.321 7.095,385.875 6.949,385.417 6.855 C 384.958 6.761,384.058 6.565,383.417 6.418 C 381.065 5.881,379.530 5.598,376.708 5.179 C 372.511 4.556,371.834 4.516,372.160 4.909 C 372.391 5.186,372.241 5.834,371.947 5.831 C 371.302 5.824,371.000 5.609,371.000 5.159 C 371.000 4.805,371.092 4.672,371.375 4.618 C 371.612 4.572,371.524 4.537,371.136 4.523 C 370.584 4.502,370.517 4.546,370.469 4.958 C 370.429 5.312,370.317 5.428,369.979 5.467 C 369.458 5.528,368.942 5.074,369.052 4.653 C 369.096 4.484,369.021 4.313,368.880 4.259 C 368.703 4.191,368.659 4.240,368.731 4.427 C 368.870 4.790,368.551 5.333,368.198 5.333 C 367.741 5.333,367.168 4.850,367.150 4.449 C 367.135 4.113,367.124 4.117,367.018 4.500 C 366.841 5.141,365.750 5.198,365.468 4.580 C 365.275 4.157,365.262 4.153,365.139 4.486 C 364.953 4.990,363.739 4.989,363.579 4.486 L 363.468 4.138 363.225 4.486 C 362.877 4.982,361.833 4.917,361.833 4.399 C 361.833 4.090,361.561 4.102,361.440 4.417 C 361.310 4.756,360.356 4.739,359.971 4.391 C 359.804 4.239,359.667 4.196,359.667 4.294 C 359.667 4.621,358.685 4.717,358.252 4.433 C 358.005 4.272,357.811 4.234,357.749 4.335 C 357.596 4.583,356.167 4.544,356.164 4.292 C 356.162 4.138,356.124 4.142,356.019 4.308 C 355.845 4.582,354.746 4.606,354.428 4.343 C 354.255 4.199,354.182 4.204,354.129 4.364 C 354.036 4.641,352.633 4.649,352.541 4.373 C 352.491 4.223,352.408 4.235,352.225 4.418 C 351.900 4.742,351.018 4.741,350.894 4.417 C 350.772 4.100,350.563 4.096,350.443 4.408 M373.642 5.183 C 374.214 5.382,374.310 5.674,373.912 6.004 C 373.520 6.329,372.833 5.958,372.833 5.420 C 372.833 4.946,372.904 4.926,373.642 5.183 M375.750 6.000 C 375.750 6.231,375.657 6.409,375.542 6.400 C 375.427 6.391,375.183 6.372,375.000 6.358 C 374.760 6.340,374.667 6.214,374.667 5.906 C 374.667 5.525,374.725 5.484,375.208 5.531 C 375.661 5.575,375.750 5.652,375.750 6.000 M377.239 5.996 C 377.632 6.145,377.814 6.630,377.569 6.875 C 377.325 7.120,376.500 6.625,376.500 6.234 C 376.500 5.791,376.609 5.756,377.239 5.996 M379.082 6.530 C 379.667 6.796,379.561 7.262,378.925 7.215 C 378.345 7.173,378.088 6.945,378.223 6.595 C 378.343 6.282,378.510 6.269,379.082 6.530 M381.152 7.232 C 381.241 7.340,381.253 7.527,381.178 7.648 C 380.971 7.984,380.000 7.725,380.000 7.334 C 380.000 6.841,380.770 6.772,381.152 7.232 M382.896 7.870 C 383.168 8.304,382.837 8.557,382.277 8.344 C 381.653 8.106,381.651 7.456,382.275 7.531 C 382.518 7.560,382.797 7.713,382.896 7.870 M384.308 8.183 C 384.830 8.365,385.025 8.862,384.663 9.086 C 384.478 9.200,383.500 8.824,383.500 8.640 C 383.500 8.497,383.689 8.000,383.743 8.000 C 383.765 8.000,384.020 8.082,384.308 8.183 M386.417 9.345 C 386.417 9.675,386.342 9.742,386.013 9.705 C 385.410 9.638,385.142 9.358,385.335 8.996 C 385.583 8.533,386.417 8.802,386.417 9.345 M387.699 9.755 C 387.946 10.296,387.660 10.674,387.257 10.339 C 386.869 10.017,386.942 9.333,387.365 9.333 C 387.443 9.333,387.594 9.523,387.699 9.755 M37.178 60.173 C 37.557 60.376,37.606 60.970,37.255 61.105 C 36.894 61.243,35.980 60.794,36.081 60.528 C 36.128 60.406,36.167 60.237,36.167 60.153 C 36.167 59.947,36.778 59.959,37.178 60.173 M38.739 60.663 C 39.196 60.836,39.370 61.667,38.950 61.667 C 38.196 61.667,37.646 61.087,38.033 60.700 C 38.273 60.460,38.215 60.463,38.739 60.663 M41.000 61.673 C 41.000 62.118,40.715 62.227,40.157 61.996 C 39.642 61.783,39.542 61.525,39.852 61.215 C 40.128 60.939,41.000 61.287,41.000 61.673 M42.608 61.860 C 42.814 62.024,42.718 62.667,42.488 62.667 C 42.239 62.667,41.500 62.283,41.500 62.154 C 41.500 61.536,42.026 61.396,42.608 61.860 M44.264 62.167 C 44.405 62.167,44.500 62.335,44.500 62.583 C 44.500 62.883,44.410 63.000,44.180 63.000 C 43.653 63.000,43.333 62.815,43.333 62.510 C 43.333 62.133,43.510 61.968,43.797 62.078 C 43.923 62.127,44.134 62.167,44.264 62.167 M45.958 62.605 C 46.333 62.705,46.477 63.225,46.181 63.408 C 45.887 63.589,45.167 63.184,45.167 62.837 C 45.167 62.485,45.331 62.437,45.958 62.605 M47.912 63.059 C 48.287 63.333,48.139 63.923,47.735 63.767 C 47.591 63.712,47.366 63.667,47.236 63.667 C 47.095 63.667,47.000 63.499,47.000 63.250 C 47.000 62.775,47.406 62.690,47.912 63.059 M49.880 63.484 C 50.033 63.633,49.861 64.167,49.660 64.167 C 49.143 64.167,48.700 63.827,48.786 63.497 C 48.878 63.144,49.523 63.136,49.880 63.484 M51.807 63.761 C 51.972 63.897,51.602 64.500,51.354 64.500 C 50.892 64.500,50.469 64.109,50.589 63.794 C 50.683 63.550,51.522 63.527,51.807 63.761 M53.583 64.250 C 53.583 64.493,53.454 64.598,53.105 64.638 C 52.545 64.702,52.246 64.469,52.393 64.084 C 52.554 63.665,53.583 63.808,53.583 64.250 M55.407 64.318 C 55.626 64.672,55.287 65.018,54.770 64.967 C 53.952 64.888,53.914 64.167,54.729 64.167 C 55.050 64.167,55.356 64.235,55.407 64.318 M57.278 64.596 C 57.429 64.990,56.989 65.324,56.458 65.219 C 56.112 65.150,56.000 65.031,56.000 64.731 C 56.000 64.244,57.099 64.129,57.278 64.596 M58.905 64.554 C 59.116 64.709,59.173 64.885,59.093 65.138 C 58.900 65.743,57.833 65.564,57.833 64.927 C 57.833 64.297,58.321 64.127,58.905 64.554 " stroke="none" fill="#cccccc" fill-rule="evenodd"></path><path id="path2" d="" stroke="none" fill="#d4d4d4" fill-rule="evenodd"></path><path id="path3" d="" stroke="none" fill="#dcdcdc" fill-rule="evenodd"></path><path id="path4" d="M371.110 4.792 C 371.067 4.860,371.250 4.925,371.516 4.934 C 371.782 4.944,372.000 4.888,372.000 4.809 C 372.000 4.634,371.216 4.618,371.110 4.792 M54.177 64.355 C 54.165 64.663,54.619 65.103,54.782 64.940 C 54.841 64.882,54.799 64.833,54.689 64.833 C 54.579 64.833,54.421 64.665,54.339 64.458 C 54.237 64.205,54.184 64.171,54.177 64.355 M56.208 64.448 C 56.369 64.490,56.631 64.490,56.792 64.448 C 56.952 64.406,56.821 64.372,56.500 64.372 C 56.179 64.372,56.048 64.406,56.208 64.448 M57.833 64.644 C 57.833 64.723,58.021 64.751,58.250 64.707 C 58.479 64.664,58.667 64.599,58.667 64.564 C 58.667 64.529,58.479 64.500,58.250 64.500 C 58.021 64.500,57.833 64.565,57.833 64.644 M61.533 64.867 C 61.291 65.109,61.274 65.444,61.498 65.582 C 61.596 65.642,61.619 65.569,61.554 65.401 C 61.486 65.223,61.560 65.035,61.755 64.893 C 61.925 64.768,61.989 64.667,61.899 64.667 C 61.808 64.667,61.643 64.757,61.533 64.867 M66.875 65.833 C 66.917 65.987,67.162 66.092,67.513 66.107 C 68.035 66.128,68.041 66.124,67.584 66.050 C 67.309 66.006,67.022 65.883,66.946 65.777 C 66.853 65.646,66.830 65.665,66.875 65.833 " stroke="none" fill="#e4e4e4" fill-rule="evenodd"></path></g></svg>